<svg width="256" height="256" viewBox="0 0 256 256" fill="none" xmlns="http://www.w3.org/2000/svg">
<path d="M13.1361 172.162H13.9277C14.0659 172.162 14.135 172.224 14.135 172.35V176.685C14.135 177.175 13.9968 177.555 13.7203 177.825C13.4502 178.089 13.0701 178.221 12.5801 178.221H11.5436C11.0473 178.221 10.664 178.089 10.3939 177.825C10.1238 177.561 9.98871 177.181 9.98871 176.685V172.36C9.98871 172.228 10.0547 172.162 10.1866 172.162H10.9876C11.1195 172.162 11.1855 172.228 11.1855 172.36V176.628C11.1855 176.829 11.2263 176.974 11.308 177.062C11.3959 177.143 11.5373 177.184 11.732 177.184H12.3822C12.5833 177.184 12.7246 177.143 12.8063 177.062C12.8942 176.974 12.9382 176.829 12.9382 176.628V172.36C12.9382 172.228 13.0042 172.162 13.1361 172.162ZM18.9273 176.675V176.487C18.9273 176.355 18.9933 176.289 19.1252 176.289H19.9262C20.0581 176.289 20.1241 176.355 20.1241 176.487V176.562C20.1241 176.801 20.1712 176.964 20.2655 177.052C20.3597 177.14 20.5325 177.184 20.7837 177.184H21.2266C21.4716 177.184 21.6413 177.137 21.7355 177.043C21.836 176.949 21.8863 176.773 21.8863 176.515V176.402C21.8863 176.22 21.8109 176.082 21.6601 175.988C21.5156 175.887 21.3334 175.827 21.1136 175.808C20.8937 175.79 20.655 175.755 20.3974 175.705C20.1461 175.648 19.9105 175.579 19.6906 175.498C19.4708 175.41 19.2854 175.243 19.1347 174.998C18.9902 174.747 18.9179 174.426 18.9179 174.037V173.707C18.9179 173.217 19.0561 172.837 19.3325 172.567C19.609 172.297 19.9922 172.162 20.4822 172.162H21.4245C21.9208 172.162 22.3072 172.297 22.5836 172.567C22.86 172.837 22.9982 173.217 22.9982 173.707V173.886C22.9982 174.018 22.9323 174.084 22.8003 174.084H21.9993C21.8674 174.084 21.8015 174.018 21.8015 173.886V173.83C21.8015 173.585 21.7543 173.418 21.6601 173.33C21.5659 173.242 21.3931 173.198 21.1418 173.198H20.7743C20.5168 173.198 20.3408 173.248 20.2466 173.349C20.1587 173.443 20.1147 173.632 20.1147 173.914V174.093C20.1147 174.389 20.3723 174.558 20.8874 174.602C21.4214 174.646 21.8957 174.753 22.3103 174.923C22.5302 175.017 22.7124 175.187 22.8569 175.432C23.0076 175.67 23.083 175.978 23.083 176.355V176.675C23.083 177.165 22.9448 177.546 22.6684 177.816C22.392 178.086 22.0088 178.221 21.5188 178.221H20.4916C20.0016 178.221 19.6184 178.086 19.342 177.816C19.0656 177.546 18.9273 177.165 18.9273 176.675ZM31.5646 178.221H28.4644C28.3324 178.221 28.2665 178.155 28.2665 178.023V175.545L27.6728 175.884C27.6226 175.909 27.5786 175.912 27.5409 175.893C27.5032 175.868 27.4843 175.824 27.4843 175.761V175.149C27.4843 175.023 27.5472 174.926 27.6728 174.857L28.2665 174.527V172.36C28.2665 172.228 28.3324 172.162 28.4644 172.162H29.2653C29.3973 172.162 29.4632 172.228 29.4632 172.36V173.839L30.236 173.406C30.3616 173.349 30.4244 173.387 30.4244 173.519V174.15C30.4244 174.282 30.3616 174.382 30.236 174.452L29.4632 174.885V177.071C29.4632 177.14 29.5009 177.175 29.5763 177.175H31.5646C31.6903 177.175 31.7531 177.244 31.7531 177.382V178.023C31.7531 178.155 31.6903 178.221 31.5646 178.221ZM39.6649 172.162H40.4565C40.5947 172.162 40.6638 172.224 40.6638 172.35V176.685C40.6638 177.175 40.5256 177.555 40.2492 177.825C39.979 178.089 39.599 178.221 39.1089 178.221H38.0724C37.5761 178.221 37.1929 178.089 36.9227 177.825C36.6526 177.561 36.5175 177.181 36.5175 176.685V172.36C36.5175 172.228 36.5835 172.162 36.7154 172.162H37.5164C37.6483 172.162 37.7143 172.228 37.7143 172.36V176.628C37.7143 176.829 37.7551 176.974 37.8368 177.062C37.9247 177.143 38.0661 177.184 38.2608 177.184H38.9111C39.1121 177.184 39.2534 177.143 39.3351 177.062C39.4231 176.974 39.467 176.829 39.467 176.628V172.36C39.467 172.228 39.533 172.162 39.6649 172.162ZM48.0664 178.221H47.0676C46.5713 178.221 46.1881 178.089 45.9179 177.825C45.6478 177.561 45.5127 177.181 45.5127 176.685V173.698C45.5127 173.201 45.6478 172.821 45.9179 172.557C46.1881 172.294 46.5713 172.162 47.0676 172.162H48.0664C48.5564 172.162 48.9365 172.297 49.2067 172.567C49.4768 172.831 49.6119 173.208 49.6119 173.698V173.98C49.6119 174.119 49.5459 174.188 49.414 174.188H48.613C48.4811 174.188 48.4151 174.119 48.4151 173.98V173.754C48.4151 173.553 48.3743 173.412 48.2926 173.33C48.2109 173.242 48.0696 173.198 47.8685 173.198H47.256C47.0613 173.198 46.9199 173.242 46.832 173.33C46.7503 173.412 46.7095 173.553 46.7095 173.754V176.628C46.7095 176.829 46.7503 176.974 46.832 177.062C46.9199 177.143 47.0613 177.184 47.256 177.184H47.8685C48.0696 177.184 48.2109 177.143 48.2926 177.062C48.3743 176.974 48.4151 176.829 48.4151 176.628V176.035C48.4151 175.966 48.3805 175.931 48.3114 175.931H47.746C47.6141 175.931 47.5482 175.865 47.5482 175.733V175.092C47.5482 174.96 47.6141 174.894 47.746 174.894H49.3951C49.5396 174.894 49.6119 174.967 49.6119 175.111V176.685C49.6119 177.175 49.4768 177.555 49.2067 177.825C48.9365 178.089 48.5564 178.221 48.0664 178.221ZM55.7552 172.36V178.023C55.7552 178.155 55.6893 178.221 55.5573 178.221H54.7564C54.6244 178.221 54.5585 178.155 54.5585 178.023V172.36C54.5585 172.228 54.6244 172.162 54.7564 172.162H55.5573C55.6893 172.162 55.7552 172.228 55.7552 172.36ZM67.6316 178.221H66.8306C66.6987 178.221 66.6327 178.155 66.6327 178.023V172.36C66.6327 172.228 66.6987 172.162 66.8306 172.162H69.0734C69.5634 172.162 69.9466 172.297 70.223 172.567C70.4994 172.837 70.6376 173.217 70.6376 173.707V174.442C70.6376 175.152 70.3581 175.623 69.7989 175.856V175.893L70.8072 177.995C70.8638 178.145 70.8104 178.221 70.647 178.221H69.8838C69.7707 178.221 69.689 178.208 69.6388 178.183C69.5885 178.158 69.5477 178.105 69.5162 178.023L68.5739 175.988H67.9426C67.8672 175.988 67.8295 176.022 67.8295 176.091V178.023C67.8295 178.155 67.7635 178.221 67.6316 178.221ZM67.9331 175.026H68.8566C69.0576 175.026 69.2053 174.986 69.2995 174.904C69.3937 174.816 69.4409 174.678 69.4409 174.489V173.754C69.4409 173.559 69.3937 173.418 69.2995 173.33C69.2053 173.242 69.0576 173.198 68.8566 173.198H67.9331C67.864 173.198 67.8295 173.233 67.8295 173.302V174.923C67.8295 174.992 67.864 175.026 67.9331 175.026ZM78.8348 178.221H75.7534C75.6215 178.221 75.5555 178.155 75.5555 178.023V172.36C75.5555 172.228 75.6215 172.162 75.7534 172.162H78.8348C78.9605 172.162 79.0233 172.228 79.0233 172.36V173C79.0233 173.132 78.9605 173.198 78.8348 173.198H76.8653C76.7899 173.198 76.7523 173.233 76.7523 173.302V174.527C76.7523 174.596 76.7899 174.631 76.8653 174.631H78.4767C78.6086 174.631 78.6746 174.697 78.6746 174.828V175.469C78.6746 175.601 78.6086 175.667 78.4767 175.667H76.8653C76.7899 175.667 76.7523 175.702 76.7523 175.771V177.081C76.7523 177.15 76.7899 177.184 76.8653 177.184H78.8348C78.9605 177.184 79.0233 177.25 79.0233 177.382V178.023C79.0233 178.155 78.9605 178.221 78.8348 178.221ZM87.8583 172.162H89.2529C89.3848 172.162 89.4508 172.228 89.4508 172.36V178.023C89.4508 178.155 89.3848 178.221 89.2529 178.221H88.4802C88.3483 178.221 88.2823 178.155 88.2823 178.023V173.556H88.2446L87.2834 176.713C87.2457 176.839 87.1672 176.902 87.0479 176.902H86.2563C86.1369 176.902 86.0584 176.839 86.0207 176.713L85.0407 173.547H85.003V178.023C85.003 178.098 84.9904 178.152 84.9653 178.183C84.9402 178.208 84.8868 178.221 84.8046 178.221H84.0319C83.9 178.221 83.834 178.155 83.834 178.023V172.36C83.834 172.228 83.9 172.162 84.0319 172.162H85.4365C85.5244 172.162 85.5841 172.206 85.6155 172.294L86.6144 175.62H86.6709L87.6792 172.294C87.6981 172.206 87.7577 172.162 87.8583 172.162ZM96.0895 177.184H96.7586C96.9596 177.184 97.101 177.143 97.1826 177.062C97.2706 176.974 97.3145 176.829 97.3145 176.628V173.754C97.3145 173.553 97.2706 173.412 97.1826 173.33C97.101 173.242 96.9596 173.198 96.7586 173.198H96.0895C95.8885 173.198 95.7471 173.242 95.6655 173.33C95.5838 173.412 95.543 173.553 95.543 173.754V176.628C95.543 176.829 95.5838 176.974 95.6655 177.062C95.7471 177.143 95.8885 177.184 96.0895 177.184ZM96.9565 178.221H95.9011C95.4048 178.221 95.0215 178.089 94.7514 177.825C94.4813 177.561 94.3462 177.181 94.3462 176.685V173.698C94.3462 173.201 94.4813 172.821 94.7514 172.557C95.0215 172.294 95.4048 172.162 95.9011 172.162H96.9565C97.4528 172.162 97.836 172.294 98.1061 172.557C98.3763 172.821 98.5113 173.201 98.5113 173.698V176.685C98.5113 177.181 98.3763 177.561 98.1061 177.825C97.836 178.089 97.4528 178.221 96.9565 178.221ZM104.39 178.221H103.608C103.476 178.221 103.41 178.155 103.41 178.023V172.36C103.41 172.228 103.476 172.162 103.608 172.162H104.315C104.446 172.162 104.534 172.206 104.578 172.294L106.482 175.865H106.52V172.36C106.52 172.228 106.586 172.162 106.717 172.162H107.5C107.632 172.162 107.697 172.228 107.697 172.36V178.023C107.697 178.155 107.632 178.221 107.5 178.221H106.812C106.673 178.221 106.573 178.158 106.51 178.032L104.625 174.527H104.588V178.023C104.588 178.155 104.522 178.221 104.39 178.221ZM114.567 178.221H113.776C113.637 178.221 113.568 178.155 113.568 178.023V173.302C113.568 173.233 113.534 173.198 113.465 173.198H112.39C112.258 173.198 112.192 173.132 112.192 173V172.36C112.192 172.228 112.258 172.162 112.39 172.162H115.952C116.084 172.162 116.15 172.228 116.15 172.36V173C116.15 173.132 116.084 173.198 115.952 173.198H114.878C114.803 173.198 114.765 173.233 114.765 173.302V178.023C114.765 178.155 114.699 178.221 114.567 178.221ZM122.288 177.184H122.957C123.158 177.184 123.299 177.143 123.381 177.062C123.469 176.974 123.513 176.829 123.513 176.628V173.754C123.513 173.553 123.469 173.412 123.381 173.33C123.299 173.242 123.158 173.198 122.957 173.198H122.288C122.087 173.198 121.946 173.242 121.864 173.33C121.782 173.412 121.741 173.553 121.741 173.754V176.628C121.741 176.829 121.782 176.974 121.864 177.062C121.946 177.143 122.087 177.184 122.288 177.184ZM123.155 178.221H122.099C121.603 178.221 121.22 178.089 120.95 177.825C120.68 177.561 120.545 177.181 120.545 176.685V173.698C120.545 173.201 120.68 172.821 120.95 172.557C121.22 172.294 121.603 172.162 122.099 172.162H123.155C123.651 172.162 124.034 172.294 124.304 172.557C124.575 172.821 124.71 173.201 124.71 173.698V176.685C124.71 177.181 124.575 177.561 124.304 177.825C124.034 178.089 123.651 178.221 123.155 178.221ZM131.699 178.221H130.379C130.241 178.221 130.163 178.155 130.144 178.023L129.136 172.36C129.117 172.228 129.183 172.162 129.333 172.162H130.313C130.458 172.162 130.533 172.228 130.54 172.36L131.086 177.005H131.152L132.057 172.331C132.076 172.218 132.142 172.162 132.255 172.162H133.31C133.429 172.162 133.499 172.215 133.517 172.322L134.441 177.005H134.516L135.053 172.369C135.06 172.231 135.135 172.162 135.28 172.162H136.26C136.41 172.162 136.476 172.231 136.457 172.369L135.44 178.023C135.421 178.155 135.349 178.221 135.223 178.221H133.894C133.762 178.221 133.687 178.155 133.668 178.023L132.82 173.603H132.782L131.925 178.023C131.9 178.155 131.824 178.221 131.699 178.221ZM142.627 177.184H143.296C143.497 177.184 143.638 177.143 143.72 177.062C143.808 176.974 143.852 176.829 143.852 176.628V173.754C143.852 173.553 143.808 173.412 143.72 173.33C143.638 173.242 143.497 173.198 143.296 173.198H142.627C142.426 173.198 142.284 173.242 142.203 173.33C142.121 173.412 142.08 173.553 142.08 173.754V176.628C142.08 176.829 142.121 176.974 142.203 177.062C142.284 177.143 142.426 177.184 142.627 177.184ZM143.494 178.221H142.438C141.942 178.221 141.559 178.089 141.288 177.825C141.018 177.561 140.883 177.181 140.883 176.685V173.698C140.883 173.201 141.018 172.821 141.288 172.557C141.559 172.294 141.942 172.162 142.438 172.162H143.494C143.99 172.162 144.373 172.294 144.643 172.557C144.913 172.821 145.048 173.201 145.048 173.698V176.685C145.048 177.181 144.913 177.561 144.643 177.825C144.373 178.089 143.99 178.221 143.494 178.221ZM157.539 175.695H155.749C155.617 175.695 155.551 175.629 155.551 175.498V174.942C155.551 174.803 155.617 174.734 155.749 174.734H157.539C157.671 174.734 157.737 174.803 157.737 174.942V175.498C157.737 175.629 157.671 175.695 157.539 175.695ZM169.631 177.222H170.686C170.893 177.222 171.041 177.181 171.129 177.099C171.223 177.012 171.27 176.87 171.27 176.675V176.129C171.27 175.934 171.223 175.796 171.129 175.714C171.035 175.633 170.881 175.592 170.667 175.592H169.631C169.562 175.592 169.527 175.626 169.527 175.695V177.118C169.527 177.187 169.562 177.222 169.631 177.222ZM169.631 174.621H170.592C170.793 174.621 170.94 174.58 171.035 174.499C171.129 174.411 171.176 174.269 171.176 174.075V173.707C171.176 173.512 171.129 173.374 171.035 173.292C170.947 173.205 170.802 173.161 170.601 173.161H169.631C169.562 173.161 169.527 173.195 169.527 173.264V174.517C169.527 174.587 169.562 174.621 169.631 174.621ZM168.33 178.023V172.36C168.33 172.228 168.396 172.162 168.528 172.162H170.79C171.286 172.162 171.669 172.294 171.939 172.557C172.209 172.821 172.345 173.198 172.345 173.688V174.075C172.345 174.609 172.096 174.954 171.6 175.111C171.851 175.149 172.052 175.253 172.203 175.422C172.354 175.585 172.429 175.821 172.429 176.129V176.694C172.429 177.184 172.294 177.561 172.024 177.825C171.754 178.089 171.374 178.221 170.884 178.221H168.528C168.396 178.221 168.33 178.155 168.33 178.023ZM180.428 172.162H181.22C181.358 172.162 181.427 172.224 181.427 172.35V176.685C181.427 177.175 181.289 177.555 181.012 177.825C180.742 178.089 180.362 178.221 179.872 178.221H178.836C178.339 178.221 177.956 178.089 177.686 177.825C177.416 177.561 177.281 177.181 177.281 176.685V172.36C177.281 172.228 177.347 172.162 177.479 172.162H178.28C178.412 172.162 178.478 172.228 178.478 172.36V176.628C178.478 176.829 178.518 176.974 178.6 177.062C178.688 177.143 178.829 177.184 179.024 177.184H179.674C179.875 177.184 180.017 177.143 180.098 177.062C180.186 176.974 180.23 176.829 180.23 176.628V172.36C180.23 172.228 180.296 172.162 180.428 172.162ZM187.67 177.184H188.697C188.898 177.184 189.04 177.143 189.121 177.062C189.209 176.974 189.253 176.829 189.253 176.628V173.754C189.253 173.553 189.209 173.412 189.121 173.33C189.04 173.242 188.898 173.198 188.697 173.198H187.67C187.601 173.198 187.566 173.233 187.566 173.302V177.081C187.566 177.15 187.601 177.184 187.67 177.184ZM186.37 178.023V172.36C186.37 172.228 186.436 172.162 186.567 172.162H188.895C189.385 172.162 189.765 172.297 190.035 172.567C190.312 172.831 190.45 173.208 190.45 173.698V176.685C190.45 177.175 190.312 177.555 190.035 177.825C189.765 178.089 189.385 178.221 188.895 178.221H186.567C186.436 178.221 186.37 178.155 186.37 178.023ZM196.996 177.184H197.665C197.866 177.184 198.007 177.143 198.089 177.062C198.177 176.974 198.221 176.829 198.221 176.628V173.754C198.221 173.553 198.177 173.412 198.089 173.33C198.007 173.242 197.866 173.198 197.665 173.198H196.996C196.795 173.198 196.654 173.242 196.572 173.33C196.49 173.412 196.449 173.553 196.449 173.754V176.628C196.449 176.829 196.49 176.974 196.572 177.062C196.654 177.143 196.795 177.184 196.996 177.184ZM197.863 178.221H196.807C196.311 178.221 195.928 178.089 195.658 177.825C195.388 177.561 195.253 177.181 195.253 176.685V173.698C195.253 173.201 195.388 172.821 195.658 172.557C195.928 172.294 196.311 172.162 196.807 172.162H197.863C198.359 172.162 198.742 172.294 199.013 172.557C199.283 172.821 199.418 173.201 199.418 173.698V176.685C199.418 177.181 199.283 177.561 199.013 177.825C198.742 178.089 198.359 178.221 197.863 178.221ZM206.408 178.221H205.089C204.951 178.221 204.872 178.155 204.853 178.023L203.845 172.36C203.826 172.228 203.892 172.162 204.043 172.162H205.023C205.168 172.162 205.243 172.228 205.249 172.36L205.796 177.005H205.862L206.766 172.331C206.785 172.218 206.851 172.162 206.964 172.162H208.02C208.139 172.162 208.208 172.215 208.227 172.322L209.15 177.005H209.226L209.763 172.369C209.769 172.231 209.845 172.162 209.989 172.162H210.969C211.12 172.162 211.186 172.231 211.167 172.369L210.149 178.023C210.13 178.155 210.058 178.221 209.933 178.221H208.604C208.472 178.221 208.397 178.155 208.378 178.023L207.53 173.603H207.492L206.634 178.023C206.609 178.155 206.534 178.221 206.408 178.221ZM218.985 178.221H215.885C215.753 178.221 215.687 178.155 215.687 178.023V172.36C215.687 172.228 215.753 172.162 215.885 172.162H216.686C216.818 172.162 216.884 172.228 216.884 172.36V177.071C216.884 177.14 216.922 177.175 216.997 177.175H218.985C219.111 177.175 219.174 177.244 219.174 177.382V178.023C219.174 178.155 219.111 178.221 218.985 178.221ZM224.32 178.221H223.416C223.303 178.221 223.265 178.155 223.303 178.023L224.792 172.36C224.836 172.228 224.93 172.162 225.074 172.162H226.328C226.485 172.162 226.579 172.228 226.61 172.36L228.099 178.023C228.137 178.155 228.099 178.221 227.986 178.221H227.081C227.012 178.221 226.965 178.208 226.94 178.183C226.915 178.152 226.896 178.098 226.884 178.023L226.62 176.986H224.782L224.518 178.023C224.506 178.098 224.484 178.152 224.452 178.183C224.427 178.208 224.383 178.221 224.32 178.221ZM225.687 173.302L225.008 176.025H226.403L225.724 173.302H225.687ZM233.684 178.221H232.902C232.77 178.221 232.704 178.155 232.704 178.023V172.36C232.704 172.228 232.77 172.162 232.902 172.162H233.609C233.741 172.162 233.829 172.206 233.872 172.294L235.776 175.865H235.814V172.36C235.814 172.228 235.88 172.162 236.012 172.162H236.794C236.926 172.162 236.992 172.228 236.992 172.36V178.023C236.992 178.155 236.926 178.221 236.794 178.221H236.106C235.968 178.221 235.867 178.158 235.804 178.032L233.92 174.527H233.882V178.023C233.882 178.155 233.816 178.221 233.684 178.221ZM245.265 178.221H242.184C242.052 178.221 241.986 178.155 241.986 178.023V172.36C241.986 172.228 242.052 172.162 242.184 172.162H245.265C245.391 172.162 245.454 172.228 245.454 172.36V173C245.454 173.132 245.391 173.198 245.265 173.198H243.296C243.22 173.198 243.183 173.233 243.183 173.302V174.527C243.183 174.596 243.22 174.631 243.296 174.631H244.907C245.039 174.631 245.105 174.697 245.105 174.828V175.469C245.105 175.601 245.039 175.667 244.907 175.667H243.296C243.22 175.667 243.183 175.702 243.183 175.771V177.081C243.183 177.15 243.22 177.184 243.296 177.184H245.265C245.391 177.184 245.454 177.25 245.454 177.382V178.023C245.454 178.155 245.391 178.221 245.265 178.221Z" fill="white"/>
<path d="M96.8057 190.845H96.3628C96.1995 190.845 96.0738 190.911 95.9859 191.043C95.9042 191.175 95.8162 191.241 95.722 191.241H94.9399C94.8079 191.241 94.742 191.178 94.742 191.052V188.065C94.742 187.933 94.8079 187.867 94.9399 187.867H98.2192C98.3511 187.867 98.4171 187.933 98.4171 188.065V188.781C98.4171 188.913 98.3511 188.979 98.2192 188.979H95.9387V190.364C96.0455 190.05 96.3094 189.893 96.7303 189.893H97.1261C98.0998 189.893 98.5867 190.38 98.5867 191.354V192.39C98.5867 192.88 98.4516 193.26 98.1815 193.531C97.9114 193.794 97.5313 193.926 97.0413 193.926H96.212C95.7157 193.926 95.3325 193.794 95.0624 193.531C94.7922 193.267 94.6572 192.887 94.6572 192.39V192.202C94.6572 192.064 94.7231 191.995 94.8551 191.995H95.656C95.788 191.995 95.8539 192.064 95.8539 192.202V192.381C95.8539 192.576 95.8948 192.717 95.9764 192.805C96.0644 192.887 96.2057 192.928 96.4005 192.928H96.8434C97.0444 192.928 97.192 192.887 97.2863 192.805C97.3805 192.717 97.4276 192.576 97.4276 192.381V191.533C97.4276 191.269 97.3836 191.09 97.2957 190.996C97.2077 190.895 97.0444 190.845 96.8057 190.845ZM103.608 192.89H104.164C104.365 192.89 104.506 192.849 104.588 192.767C104.669 192.679 104.71 192.535 104.71 192.334V189.46C104.71 189.259 104.669 189.117 104.588 189.036C104.506 188.948 104.365 188.904 104.164 188.904H103.608C103.407 188.904 103.265 188.948 103.184 189.036C103.102 189.117 103.061 189.259 103.061 189.46V192.334C103.061 192.535 103.102 192.679 103.184 192.767C103.265 192.849 103.407 192.89 103.608 192.89ZM104.352 193.926H103.41C102.914 193.926 102.53 193.794 102.26 193.531C101.99 193.267 101.855 192.887 101.855 192.39V189.403C101.855 188.907 101.99 188.527 102.26 188.263C102.53 187.999 102.914 187.867 103.41 187.867H104.352C104.842 187.867 105.222 188.002 105.492 188.272C105.763 188.536 105.898 188.913 105.898 189.403V192.39C105.898 192.88 105.763 193.26 105.492 193.531C105.222 193.794 104.842 193.926 104.352 193.926ZM110.997 192.899H111.638C111.839 192.899 111.98 192.858 112.062 192.777C112.144 192.695 112.185 192.557 112.185 192.362V191.929C112.185 191.728 112.144 191.58 112.062 191.486C111.98 191.392 111.839 191.344 111.638 191.344H110.997C110.796 191.344 110.655 191.392 110.573 191.486C110.491 191.58 110.451 191.728 110.451 191.929V192.362C110.451 192.557 110.491 192.695 110.573 192.777C110.655 192.858 110.796 192.899 110.997 192.899ZM110.997 190.411H111.638C111.839 190.411 111.98 190.364 112.062 190.27C112.144 190.176 112.185 190.028 112.185 189.827V189.431C112.185 189.237 112.144 189.098 112.062 189.017C111.98 188.935 111.839 188.894 111.638 188.894H110.997C110.796 188.894 110.655 188.935 110.573 189.017C110.491 189.098 110.451 189.237 110.451 189.431V189.827C110.451 190.028 110.491 190.176 110.573 190.27C110.655 190.364 110.796 190.411 110.997 190.411ZM111.817 193.926H110.818C110.316 193.926 109.929 193.804 109.659 193.559C109.395 193.308 109.263 192.94 109.263 192.456V192.023C109.263 191.445 109.471 191.065 109.885 190.883C109.471 190.713 109.263 190.33 109.263 189.733V189.328C109.263 188.844 109.395 188.48 109.659 188.235C109.929 187.99 110.316 187.867 110.818 187.867H111.817C112.313 187.867 112.693 187.99 112.957 188.235C113.227 188.48 113.362 188.844 113.362 189.328V189.733C113.362 190.028 113.306 190.28 113.193 190.487C113.08 190.694 112.932 190.826 112.75 190.883C113.158 191.046 113.362 191.429 113.362 192.032V192.456C113.362 192.94 113.227 193.308 112.957 193.559C112.693 193.804 112.313 193.926 111.817 193.926ZM120.87 189.554V188.781C120.87 188.674 120.917 188.593 121.011 188.536L121.869 187.999C122.013 187.911 122.136 187.867 122.236 187.867H122.99C123.122 187.867 123.188 187.933 123.188 188.065V193.728C123.188 193.804 123.172 193.857 123.141 193.889C123.116 193.914 123.068 193.926 122.999 193.926H122.189C122.057 193.926 121.991 193.86 121.991 193.728V189.139L121.068 189.667C120.936 189.724 120.87 189.686 120.87 189.554ZM126.373 189.554V188.781C126.373 188.674 126.42 188.593 126.514 188.536L127.372 187.999C127.516 187.911 127.639 187.867 127.739 187.867H128.493C128.625 187.867 128.691 187.933 128.691 188.065V193.728C128.691 193.804 128.675 193.857 128.644 193.889C128.619 193.914 128.572 193.926 128.503 193.926H127.692C127.56 193.926 127.494 193.86 127.494 193.728V189.139L126.571 189.667C126.439 189.724 126.373 189.686 126.373 189.554ZM132.102 193.728V192.833C132.102 192.475 132.256 192.171 132.564 191.919L134.298 190.449C134.581 190.217 134.722 189.965 134.722 189.695V189.413C134.722 189.218 134.675 189.08 134.581 188.998C134.493 188.91 134.345 188.866 134.138 188.866H133.808C133.607 188.866 133.466 188.91 133.384 188.998C133.302 189.08 133.261 189.218 133.261 189.413V189.714C133.261 189.852 133.195 189.921 133.063 189.921H132.262C132.131 189.921 132.065 189.852 132.065 189.714V189.394C132.065 188.904 132.2 188.527 132.47 188.263C132.74 187.999 133.123 187.867 133.619 187.867H134.336C134.832 187.867 135.215 187.999 135.485 188.263C135.755 188.527 135.89 188.904 135.89 189.394V189.771C135.89 190.261 135.702 190.666 135.325 190.986L133.553 192.494C133.478 192.563 133.44 192.639 133.44 192.72V192.871H135.693C135.824 192.871 135.89 192.937 135.89 193.069V193.728C135.89 193.86 135.824 193.926 135.693 193.926H132.3C132.168 193.926 132.102 193.86 132.102 193.728ZM143.305 189.554V188.781C143.305 188.674 143.352 188.593 143.446 188.536L144.304 187.999C144.448 187.911 144.571 187.867 144.671 187.867H145.425C145.557 187.867 145.623 187.933 145.623 188.065V193.728C145.623 193.804 145.607 193.857 145.576 193.889C145.551 193.914 145.504 193.926 145.435 193.926H144.624C144.492 193.926 144.426 193.86 144.426 193.728V189.139L143.503 189.667C143.371 189.724 143.305 189.686 143.305 189.554ZM149.034 193.728V192.833C149.034 192.475 149.188 192.171 149.496 191.919L151.23 190.449C151.513 190.217 151.654 189.965 151.654 189.695V189.413C151.654 189.218 151.607 189.08 151.513 188.998C151.425 188.91 151.277 188.866 151.07 188.866H150.74C150.539 188.866 150.398 188.91 150.316 188.998C150.234 189.08 150.193 189.218 150.193 189.413V189.714C150.193 189.852 150.128 189.921 149.996 189.921H149.195C149.063 189.921 148.997 189.852 148.997 189.714V189.394C148.997 188.904 149.132 188.527 149.402 188.263C149.672 187.999 150.055 187.867 150.552 187.867H151.268C151.764 187.867 152.147 187.999 152.417 188.263C152.687 188.527 152.823 188.904 152.823 189.394V189.771C152.823 190.261 152.634 190.666 152.257 190.986L150.486 192.494C150.41 192.563 150.372 192.639 150.372 192.72V192.871H152.625C152.757 192.871 152.823 192.937 152.823 193.069V193.728C152.823 193.86 152.757 193.926 152.625 193.926H149.232C149.1 193.926 149.034 193.86 149.034 193.728ZM157.658 190.402H158.139C158.346 190.402 158.494 190.361 158.582 190.28C158.676 190.192 158.723 190.05 158.723 189.856V189.413C158.723 189.218 158.676 189.08 158.582 188.998C158.494 188.91 158.346 188.866 158.139 188.866H157.687C157.486 188.866 157.344 188.91 157.263 188.998C157.181 189.08 157.14 189.218 157.14 189.413V189.648C157.14 189.78 157.074 189.846 156.942 189.846H156.141C156.009 189.846 155.943 189.78 155.943 189.648V189.394C155.943 188.904 156.078 188.527 156.348 188.263C156.619 187.999 157.002 187.867 157.498 187.867H158.337C158.833 187.867 159.216 187.999 159.486 188.263C159.757 188.527 159.892 188.904 159.892 189.394V189.865C159.892 190.393 159.643 190.735 159.147 190.892C159.643 190.999 159.892 191.341 159.892 191.919V192.4C159.892 192.89 159.757 193.267 159.486 193.531C159.216 193.794 158.833 193.926 158.337 193.926H157.498C157.002 193.926 156.619 193.794 156.348 193.531C156.078 193.267 155.943 192.89 155.943 192.4V192.136C155.943 191.998 156.009 191.929 156.141 191.929H156.942C157.074 191.929 157.14 191.998 157.14 192.136V192.381C157.14 192.582 157.181 192.723 157.263 192.805C157.344 192.887 157.486 192.928 157.687 192.928H158.139C158.346 192.928 158.494 192.887 158.582 192.805C158.676 192.717 158.723 192.576 158.723 192.381V191.919C158.723 191.724 158.676 191.586 158.582 191.505C158.494 191.417 158.346 191.373 158.139 191.373H157.658C157.526 191.373 157.46 191.307 157.46 191.175V190.609C157.46 190.471 157.526 190.402 157.658 190.402Z" fill="white"/>
<mask id="mask0_18_145" style="mask-type:alpha" maskUnits="userSpaceOnUse" x="193" y="160" width="19" height="2">
<path d="M193.178 160.945H211.239" stroke="#FACC15"/>
</mask>
<g mask="url(#mask0_18_145)">
<path d="M230.871 68.2822H58.1104V171.939H230.871V68.2822Z" fill="url(#paint0_linear_18_145)"/>
</g>
<mask id="mask1_18_145" style="mask-type:alpha" maskUnits="userSpaceOnUse" x="68" y="72" width="151" height="97">
<path d="M113.08 72.9939V111.472L120.933 113.043V77.7055L128.785 82.4172V114.613L138.209 116.184V87.1288L146.061 91.8405M146.061 91.8405V159.374M146.061 91.8405L153.914 96.5521M153.914 96.5521L161.767 100.479M153.914 96.5521V135.816M161.767 100.479V136.601M161.767 100.479L169.62 105.19M153.914 135.816V168.012M153.914 135.816H177.472M169.62 105.19V136.601M169.62 105.19L177.472 109.902M177.472 109.902L185.325 114.613M177.472 109.902V135.816M185.325 114.613V159.374M185.325 114.613L193.178 119.325M177.472 135.816V136.601M193.178 119.325L202.601 124.037M193.178 119.325V137.387M202.601 124.037V138.172M202.601 124.037L210.454 128.748M193.178 137.387V162.515M193.178 137.387H210.454M210.454 128.748L218.307 133.46V160.326M210.454 128.748V137.387M210.454 137.387V138.172M68.319 153.092H93.4479" stroke="#FACC15"/>
</mask>
<g mask="url(#mask1_18_145)">
<path d="M230.871 68.2822H58.1105V171.939H230.871V68.2822Z" fill="url(#paint1_linear_18_145)"/>
</g>
<mask id="mask2_18_145" style="mask-type:alpha" maskUnits="userSpaceOnUse" x="67" y="68" width="28" height="85">
<path d="M67.5338 96.5521V151.521L76.9571 140.528V86.3435L84.8098 77.7055V142.098L94.2331 151.521V68.2822" stroke="#FACC15"/>
</mask>
<g mask="url(#mask2_18_145)">
<path d="M230.871 68.2822H58.1104V171.939H230.871V68.2822Z" fill="url(#paint2_linear_18_145)"/>
</g>
<path d="M1.57056 105.975L3.14111 107.72M3.14111 107.72L29.8405 137.387L58.1104 106.761M3.14111 107.72V165.656M99.7301 62L97.3742 64.4807M97.3742 64.4807L58.1104 106.761M97.3742 64.4807L103.656 68.0262M58.1104 106.761V161.73L80.0982 137.387L103.656 160.945V134.929M103.656 68.0262V109.902M103.656 68.0262L227.95 138.172M254.429 136.601L241.865 146.025L227.95 138.172M227.95 138.172L227.73 161.73M103.656 109.902L141.067 116.969M103.656 109.902V134.929M103.656 134.929H112.5V138.172" stroke="#FACC15" stroke-width="2"/>
<path d="M155 167.429V144.454M155 144.454V136.929H177.472V144.454H155ZM155 144.454L179.828 159.374" stroke="white" stroke-width="1.5"/>
<path d="M210.454 138.429H194V147.595M194 147.595V159.929H210.454M194 147.595H202.523" stroke="white" stroke-width="1.5"/>
<path d="M229.5 160.429V140.929L242 147.929L252.074 140.429V159.374" stroke="white" stroke-width="1.5"/>
<path d="M4.71167 165.656V111.429L30 139.929L56.5 110.429V165.929L69 151.929M69 151.929L80 139.429L92.5 151.929M69 151.929H92.5M105 160.929V164.429L92.5 151.929M105 160.929V111.689L139.779 118.429V151.785L105 160.929Z" stroke="white" stroke-width="1.5"/>
<path d="M97.5 65.4294L227.5 138.929V161.793L30 138.929L97.5 65.4294Z" fill="url(#paint3_linear_18_145)"/>
<defs>
<linearGradient id="paint0_linear_18_145" x1="58.1104" y1="171.939" x2="225.374" y2="171.939" gradientUnits="userSpaceOnUse">
<stop offset="0.28" stop-color="#FEF4CD"/>
<stop offset="0.665" stop-color="#FCDE69"/>
<stop offset="1" stop-color="#FBD950"/>
</linearGradient>
<linearGradient id="paint1_linear_18_145" x1="58.1105" y1="171.939" x2="225.374" y2="171.939" gradientUnits="userSpaceOnUse">
<stop offset="0.28" stop-color="#FEF4CD"/>
<stop offset="0.665" stop-color="#FCDE69"/>
<stop offset="1" stop-color="#FBD950"/>
</linearGradient>
<linearGradient id="paint2_linear_18_145" x1="58.1104" y1="171.939" x2="225.374" y2="171.939" gradientUnits="userSpaceOnUse">
<stop offset="0.28" stop-color="#FEF4CD"/>
<stop offset="0.665" stop-color="#FCDE69"/>
<stop offset="1" stop-color="#FBD950"/>
</linearGradient>
<linearGradient id="paint3_linear_18_145" x1="159" y1="71.4294" x2="143" y2="135.929" gradientUnits="userSpaceOnUse">
<stop stop-color="#FCDE69" stop-opacity="0.75"/>
<stop offset="1" stop-color="#FCDE69" stop-opacity="0"/>
</linearGradient>
</defs>
</svg>
