<svg width="32" height="32" viewBox="0 0 32 32" fill="none" xmlns="http://www.w3.org/2000/svg">
<path d="M22.5495 4.64455C19.2992 1.41941 12.6752 1.05826 8.87746 4.88112C8.2546 5.49084 8.36718 6.18798 8.7906 6.61141C9.08946 6.92284 9.56203 7.05998 10.0106 6.92284C12.6626 6.08855 15.1157 6.01426 17.0706 7.45826L16.0249 10.2474C15.626 11.3308 15.838 12.0903 16.5477 12.8126L19.4237 15.7011C19.9969 16.2863 20.6317 16.4611 21.466 16.2611L23.4832 15.8005L24.4546 16.772L24.2923 18.1914C24.2055 18.7766 24.2797 19.1377 24.7906 19.6486L25.762 20.5823C26.2969 21.1177 26.982 21.1674 27.4923 20.6565L31.4895 16.6851C31.9997 16.1743 31.9249 15.4897 31.402 14.9417L30.4432 13.9828C29.9575 13.4845 29.5717 13.3851 29.0112 13.4726L27.5797 13.6468L26.5957 12.7006L27.1935 10.5588C27.3803 9.86169 27.1437 9.21369 26.3963 8.47884L22.5495 4.64455ZM1.26889 25.6C0.0626028 26.6708 -0.000254244 27.7914 1.12089 28.9246L3.10032 30.892C4.20832 32 5.36603 31.9377 6.42489 30.7423L18.4152 17.2823L14.7295 13.6091L1.26889 25.6Z" fill="#0B0A05"/>
</svg>
