<svg width="32" height="32" viewBox="0 0 32 32" fill="none" xmlns="http://www.w3.org/2000/svg">
<rect y="32" width="32" height="32" rx="16" transform="rotate(-90 0 32)" fill="#FDFDFA"/>
<path d="M21.0721 25.5598C21.354 25.2778 21.5123 24.8954 21.5123 24.4967C21.5123 24.098 21.354 23.7157 21.0721 23.4337L13.6293 15.9909L21.0721 8.54815C21.346 8.26457 21.4976 7.88476 21.4941 7.49052C21.4907 7.09629 21.3326 6.71917 21.0538 6.44039C20.775 6.16161 20.3979 6.00348 20.0037 6.00006C19.6094 5.99663 19.2296 6.14819 18.946 6.42208L10.4402 14.9279C10.1584 15.2098 10 15.5922 10 15.9909C10 16.3896 10.1584 16.772 10.4402 17.054L18.946 25.5598C19.228 25.8416 19.6104 26 20.0091 26C20.4078 26 20.7902 25.8416 21.0721 25.5598Z" fill="#0B0A05"/>
</svg>
