<svg width="32" height="32" viewBox="0 0 32 32" fill="none" xmlns="http://www.w3.org/2000/svg">
<path d="M5.33366 26.6663C4.60033 26.6663 3.97277 26.4055 3.45099 25.8837C2.92921 25.3619 2.66788 24.7339 2.66699 23.9997V7.99967C2.66699 7.26634 2.92833 6.63879 3.45099 6.11701C3.97366 5.59523 4.60121 5.3339 5.33366 5.33301H26.667C27.4003 5.33301 28.0283 5.59434 28.551 6.11701C29.0737 6.63967 29.3345 7.26723 29.3337 7.99967V23.9997C29.3337 24.733 29.0728 25.361 28.551 25.8837C28.0292 26.4063 27.4012 26.6672 26.667 26.6663H5.33366ZM16.0003 17.333L26.667 10.6663V7.99967L16.0003 14.6663L5.33366 7.99967V10.6663L16.0003 17.333Z" fill="#0B0A05"/>
</svg>
