<svg width="32" height="32" viewBox="0 0 32 32" fill="none" xmlns="http://www.w3.org/2000/svg">
<rect x="32" width="32" height="32" rx="16" transform="rotate(90 32 0)" fill="#FDFDFA"/>
<path d="M10.9279 6.44023C10.646 6.7222 10.4877 7.10457 10.4877 7.50327C10.4877 7.90197 10.646 8.28434 10.9279 8.56631L18.3707 16.0091L10.9279 23.4518C10.654 23.7354 10.5024 24.1152 10.5059 24.5095C10.5093 24.9037 10.6674 25.2808 10.9462 25.5596C11.225 25.8384 11.6021 25.9965 11.9963 25.9999C12.3906 26.0034 12.7704 25.8518 13.054 25.5779L21.5598 17.0721C21.8416 16.7902 22 16.4078 22 16.0091C22 15.6104 21.8416 15.228 21.5598 14.946L13.054 6.44023C12.772 6.15835 12.3896 6 11.9909 6C11.5922 6 11.2098 6.15835 10.9279 6.44023Z" fill="#0B0A05"/>
</svg>
